<svg width="150" height="150" viewBox="0 0 150 150" fill="none" xmlns="http://www.w3.org/2000/svg">
<path d="M113.248 0H33.9744C15.2109 0 0 15.2109 0 33.9744V113.248C0 132.012 15.2109 147.222 33.9744 147.222H113.248C132.012 147.222 147.222 132.012 147.222 113.248V33.9744C147.222 15.2109 132.012 0 113.248 0Z" fill="#FFE2E2"/>
<path fill-rule="evenodd" clip-rule="evenodd" d="M60.0001 79.9999C62.6521 79.9999 65.1956 81.0533 67.0711 82.9288C68.9465 84.8042 69.9999 87.3478 69.9999 89.9998V110C69.9999 112.652 68.9465 115.195 67.0711 117.071C65.1956 118.946 62.6521 120 60.0001 120H40C37.3479 120 34.8043 118.946 32.929 117.071C31.0536 115.195 30.0001 112.652 30.0001 110V89.9998C30.0001 87.3478 31.0536 84.8042 32.929 82.9288C34.8043 81.0533 37.3479 79.9999 40 79.9999H60.0001ZM110 79.9999C112.652 79.9999 115.196 81.0533 117.071 82.9288C118.947 84.8042 120 87.3478 120 89.9998V110C120 112.652 118.947 115.195 117.071 117.071C115.196 118.946 112.652 120 110 120H90.0001C87.3481 120 84.8045 118.946 82.9291 117.071C81.0536 115.195 80.0002 112.652 80.0002 110V89.9998C80.0002 87.3478 81.0536 84.8042 82.9291 82.9288C84.8045 81.0533 87.3481 79.9999 90.0001 79.9999H110ZM60.0001 29.9998C62.6521 29.9998 65.1956 31.0533 67.0711 32.9287C68.9465 34.804 69.9999 37.3476 69.9999 39.9997V59.9998C69.9999 62.6518 68.9465 65.1953 67.0711 67.0708C65.1956 68.9462 62.6521 69.9996 60.0001 69.9996H40C37.3479 69.9996 34.8043 68.9462 32.929 67.0708C31.0536 65.1953 30.0001 62.6518 30.0001 59.9998V39.9997C30.0001 37.3476 31.0536 34.804 32.929 32.9287C34.8043 31.0533 37.3479 29.9998 40 29.9998H60.0001ZM110 29.9998C112.652 29.9998 115.196 31.0533 117.071 32.9287C118.947 34.804 120 37.3476 120 39.9997V59.9998C120 62.6518 118.947 65.1953 117.071 67.0708C115.196 68.9462 112.652 69.9996 110 69.9996H90.0001C87.3481 69.9996 84.8045 68.9462 82.9291 67.0708C81.0536 65.1953 80.0002 62.6518 80.0002 59.9998V39.9997C80.0002 37.3476 81.0536 34.804 82.9291 32.9287C84.8045 31.0533 87.3481 29.9998 90.0001 29.9998H110Z" fill="#CE5C5C"/>
</svg>
