<svg width="150" height="150" viewBox="0 0 150 150" fill="none" xmlns="http://www.w3.org/2000/svg">
<path d="M113.593 1.82373H36.5219C18.2795 1.82373 3.49121 17.0346 3.49121 35.7981V115.072C3.49121 133.835 18.2795 149.046 36.5219 149.046H113.593C131.836 149.046 146.624 133.835 146.624 115.072V35.7981C146.624 17.0346 131.836 1.82373 113.593 1.82373Z" fill="#DAECFF"/>
<path d="M97.0801 35.7985C97.0801 32.6806 94.6059 30.1361 91.5751 30.1361C88.5438 30.1361 86.0696 32.6806 86.0696 35.7985V52.7855H97.0801V35.7985ZM105.338 58.2888H44.7813C43.2546 58.2888 42.0288 59.5497 42.0288 61.1204V66.7826C42.0288 68.3529 43.2546 69.6138 44.7813 69.6138H47.5338V75.4355C47.5338 88.8837 56.738 100.492 69.5542 103.181V120.735H80.5646V103.172C93.3809 100.492 102.585 88.8837 102.585 75.4355V69.6138H105.338C106.864 69.6138 108.09 68.3529 108.09 66.7826V61.1204C108.09 59.7048 106.869 58.2888 105.338 58.2888ZM64.0492 35.7985C64.0492 32.6806 61.5755 30.1361 58.5442 30.1361C55.513 30.1361 53.0392 32.6806 53.0392 35.7985V52.7855H64.0492V35.7985Z" fill="#1D88FA"/>
</svg>
