<svg width="150" height="150" viewBox="0 0 150 150" fill="none" xmlns="http://www.w3.org/2000/svg">
<mask id="mask0_21_600" style="mask-type:luminance" maskUnits="userSpaceOnUse" x="2" y="0" width="146" height="150">
<path d="M147.973 0H2.0271V150H147.973V0Z" fill="white"/>
</mask>
<g mask="url(#mask0_21_600)">
<path d="M114.293 0H35.7068C17.1061 0 2.0271 15.4978 2.0271 34.6154V115.385C2.0271 134.502 17.1061 150 35.7068 150H114.293C132.894 150 147.973 134.502 147.973 115.385V34.6154C147.973 15.4978 132.894 0 114.293 0Z" fill="#F3DAFF"/>
<mask id="mask1_21_600" style="mask-type:luminance" maskUnits="userSpaceOnUse" x="40" y="37" width="74" height="76">
<path d="M113.475 37.5H40.7802V112.136H113.475V37.5Z" fill="white"/>
</mask>
<g mask="url(#mask1_21_600)">
<path fill-rule="evenodd" clip-rule="evenodd" d="M77.1277 37.5C107.06 37.5 113.475 43.0285 113.475 70.6715C113.475 88.6394 110.447 99.6965 96.8167 99.6965C89.5326 99.6965 87.366 103.249 85.3482 106.557C83.5904 109.44 81.9454 112.136 77.1284 112.136C72.3117 112.136 70.667 109.44 68.9089 106.557C66.8911 103.249 64.7245 99.6965 57.4401 99.6965C43.8099 99.6965 40.7802 88.2856 40.7802 70.6715C40.7802 43.3547 47.1954 37.5 77.1277 37.5ZM80.1568 62.3785C80.1568 60.6612 81.5128 59.2689 83.1855 59.2689H92.2724C93.9454 59.2689 95.3014 60.6612 95.3014 62.3785C95.3014 64.0962 93.9454 65.4885 92.2724 65.4885H83.1855C81.5128 65.4885 80.1568 64.0962 80.1568 62.3785ZM61.983 71.708C60.3099 71.708 58.9539 73.1002 58.9539 74.818C58.9539 76.5357 60.3099 77.9279 61.983 77.9279H92.2724C93.9454 77.9279 95.3014 76.5357 95.3014 74.818C95.3014 73.1002 93.9454 71.708 92.2724 71.708H61.983Z" fill="#A21FDF"/>
</g>
</g>
</svg>
