<svg width="150" height="150" viewBox="0 0 150 150" fill="none" xmlns="http://www.w3.org/2000/svg">
<mask id="mask0_21_628" style="mask-type:luminance" maskUnits="userSpaceOnUse" x="2" y="2" width="148" height="145">
<path d="M149.583 2.89026H2.36047V146.023H149.583V2.89026Z" fill="white"/>
</mask>
<g mask="url(#mask0_21_628)">
<path d="M115.608 2.89026H36.3349C17.5713 2.89026 2.36047 17.6786 2.36047 35.9209V112.992C2.36047 131.235 17.5713 146.023 36.3349 146.023H115.608C134.372 146.023 149.583 131.235 149.583 112.992V35.9209C149.583 17.6786 134.372 2.89026 115.608 2.89026Z" fill="#E9E3FF"/>
<path d="M75.973 90.9718C73.048 90.9718 70.1234 90.0393 67.6278 88.1489L30.674 60.2118V99.2293C30.674 103.788 34.4766 107.487 39.1675 107.487H112.779C117.469 107.487 121.273 103.79 121.273 99.2293V60.2118L84.325 88.1677C81.8303 90.0431 78.8928 90.9718 75.973 90.9718ZM33.5564 55.4123L71.1053 83.8152C73.9703 85.9827 77.9834 85.9827 80.848 83.8152L118.397 55.4123C120.052 54.036 121.273 51.9198 121.273 49.6835C121.273 45.1227 117.468 41.4258 112.779 41.4258H39.1675C34.4766 41.4258 30.674 45.1227 30.674 49.6835C30.674 51.9198 31.7374 54.036 33.5564 55.4123Z" fill="#6F4CFC"/>
</g>
</svg>
