<svg width="150" height="150" viewBox="0 0 150 150" fill="none" xmlns="http://www.w3.org/2000/svg">
<mask id="mask0_21_621" style="mask-type:luminance" maskUnits="userSpaceOnUse" x="3" y="3" width="144" height="144">
<path d="M146.665 3.53088H3.50745V146.689H146.665V3.53088Z" fill="white"/>
</mask>
<g mask="url(#mask0_21_621)">
<path d="M113.629 3.53088H36.5439C18.2984 3.53088 3.50745 18.3218 3.50745 36.5673V113.653C3.50745 131.898 18.2984 146.689 36.5439 146.689H113.629C131.875 146.689 146.665 131.898 146.665 113.653V36.5673C146.665 18.3218 131.875 3.53088 113.629 3.53088Z" fill="#BFFFDD"/>
<path d="M106.74 49.1966C108.583 51.3479 108.583 54.8241 106.74 56.9749L68.9808 101.028C67.1375 103.18 64.1583 103.18 62.315 101.028L43.4312 79.002C41.5884 76.8508 41.5884 73.3745 43.4312 71.2233C45.275 69.072 48.2629 69.072 50.1066 71.2233L65.515 89.3441L100.072 49.1966C101.916 47.0425 104.895 47.0425 106.74 49.1966Z" fill="#05C95F" stroke="#05C95F" stroke-width="1.07368"/>
</g>
</svg>
