<svg width="150" height="146" viewBox="0 0 150 146" fill="none" xmlns="http://www.w3.org/2000/svg">
<mask id="mask0_21_614" style="mask-type:luminance" maskUnits="userSpaceOnUse" x="3" y="1" width="144" height="144">
<path d="M146.909 1.16174H3.77606V144.458H146.909V1.16174Z" fill="white"/>
</mask>
<g mask="url(#mask0_21_614)">
<path d="M113.878 1.16174H36.8067C18.5644 1.16174 3.77606 15.967 3.77606 34.2301V111.39C3.77606 129.653 18.5644 144.458 36.8067 144.458H113.878C132.12 144.458 146.909 129.653 146.909 111.39V34.2301C146.909 15.967 132.12 1.16174 113.878 1.16174Z" fill="#FFE5B3"/>
<path d="M86.3545 28.7185V50.7643H108.375L86.3545 28.7185ZM80.8495 50.7643V28.7185H50.5712C46.0107 28.7185 42.3137 32.4198 42.3137 36.9856V108.634C42.3137 113.198 46.0107 116.901 50.5712 116.901H100.117C104.678 116.901 108.375 113.199 108.375 108.634V56.2756H86.5091C83.3095 56.2756 80.8495 53.8128 80.8495 50.7643ZM89.107 100.367H61.5816C60.0674 100.367 58.8291 99.1266 58.8291 97.6112C58.8291 96.0953 60.0674 94.8555 61.5816 94.8555H89.107C90.627 94.8555 91.8595 96.089 91.8595 97.6112C91.8595 99.1266 90.6207 100.367 89.107 100.367ZM89.107 89.3438H61.5816C60.0674 89.3438 58.8291 88.104 58.8291 86.5882C58.8291 85.0727 60.0674 83.8325 61.5816 83.8325H89.107C90.627 83.8325 91.8595 85.066 91.8595 86.5882C91.8595 88.104 90.6207 89.3438 89.107 89.3438ZM91.8595 75.5656C91.8595 77.0811 90.6207 78.3212 89.107 78.3212H61.5816C60.0674 78.3212 58.8291 77.0811 58.8291 75.5656C58.8291 74.0497 60.0674 72.8099 61.5816 72.8099H89.107C90.6207 72.8099 91.8595 74.0497 91.8595 75.5656Z" fill="#E39806"/>
</g>
</svg>
