<svg width="150" height="150" viewBox="0 0 150 150" fill="none" xmlns="http://www.w3.org/2000/svg">
<mask id="mask0_21_581" style="mask-type:luminance" maskUnits="userSpaceOnUse" x="1" y="0" width="148" height="149">
<path d="M148.374 0.720032H1.12585V148.202H148.374V0.720032Z" fill="white"/>
</mask>
<g mask="url(#mask0_21_581)">
<mask id="mask1_21_581" style="mask-type:luminance" maskUnits="userSpaceOnUse" x="3" y="0" width="144" height="149">
<path d="M146.382 0.719482H3.11383V148.202H146.382V0.719482Z" fill="white"/>
</mask>
<g mask="url(#mask1_21_581)">
<path d="M111.328 0.718933H34.1836C15.924 0.718933 1.12164 15.9566 1.12164 34.7533V114.167C1.12164 132.964 15.924 148.201 34.1836 148.201H111.328C129.588 148.201 144.39 132.964 144.39 114.167V34.7533C144.39 15.9566 129.588 0.718933 111.328 0.718933Z" fill="#CFF4FC"/>
<path d="M86.6198 64.2935C94.9722 72.904 94.86 86.7119 86.676 95.1926C86.6622 95.2068 86.6481 95.2359 86.6198 95.25L77.2191 104.926C68.9232 113.464 55.4374 113.464 47.1411 104.926C38.8454 96.3873 38.8454 82.5079 47.1411 73.9694L52.3315 68.6276C53.7025 67.2168 56.0807 68.1525 56.151 70.1537C56.2345 72.7023 56.682 75.2651 57.5074 77.7415C57.7877 78.5771 57.5914 79.5128 56.976 80.1322L55.1434 82.0182C51.2262 86.0493 51.1002 92.6294 54.9754 96.7041C58.893 100.822 65.3417 100.837 69.2871 96.776L78.6882 87.1006C82.6332 83.0404 82.6191 76.4744 78.6882 72.4434C78.1705 71.9104 77.6528 71.4926 77.247 71.205C76.9602 71.0007 76.7228 70.7303 76.5552 70.4153C76.3877 70.1003 76.2943 69.7496 76.2818 69.3909C76.2257 67.8644 76.7438 66.2951 77.9185 65.1L80.8705 62.0616C81.6398 61.2697 82.857 61.1691 83.7522 61.8172C84.777 62.5544 85.7365 63.3834 86.6198 64.2935ZM106.332 43.992C98.0357 35.4538 84.5498 35.4538 76.2535 43.992L66.8528 53.6678C66.8387 53.6819 66.8108 53.711 66.7967 53.7251C58.5985 62.2059 58.4867 76.0138 66.8528 84.6243C67.7365 85.5344 68.6961 86.3634 69.7208 87.1006C70.6161 87.7487 71.8332 87.6481 72.6025 86.8562L75.5545 83.8178C76.7292 82.6085 77.247 81.0534 77.1908 79.5269C77.1784 79.1682 77.085 78.8175 76.9174 78.5025C76.7498 78.1875 76.5128 77.9171 76.2257 77.7128C75.8198 77.4251 75.3025 77.0073 74.7848 76.4744C70.8535 72.4284 70.8398 65.8773 74.7848 61.8172L84.186 52.1418C88.131 48.0812 94.5801 48.0957 98.4972 52.2137C102.387 56.2884 102.261 62.8535 98.3293 66.8996L96.4967 68.7856C95.8817 69.4196 95.6854 70.3407 95.9657 71.1763C96.7907 73.6526 97.2244 76.2154 97.3221 78.7641C97.3924 80.7653 99.7705 81.701 101.142 80.2901L106.332 74.9484C114.627 66.4099 114.627 52.5304 106.332 43.992Z" fill="#05A6C6"/>
</g>
</g>
</svg>
