<svg width="150" height="151" viewBox="0 0 150 151" fill="none" xmlns="http://www.w3.org/2000/svg">
<mask id="mask0_21_571" style="mask-type:luminance" maskUnits="userSpaceOnUse" x="0" y="1" width="150" height="150">
<path d="M150 1H0V151H150V1Z" fill="white"/>
</mask>
<g mask="url(#mask0_21_571)">
<path d="M115.385 1H34.6154C15.4979 1 0 16.4978 0 35.6154V116.385C0 135.502 15.4979 151 34.6154 151H115.385C134.502 151 150 135.502 150 116.385V35.6154C150 16.4978 134.502 1 115.385 1Z" fill="#FFE8F1"/>
<path d="M75.3816 35.9326C77.8636 35.9326 79.8687 38.1932 79.8687 40.9807V46.6095C80.0927 46.6423 80.3032 46.6785 80.5276 46.7152C82.014 46.9641 86.4447 47.7671 88.2678 48.2863C90.5397 48.971 92.1239 51.7237 91.5069 54.4213C90.9035 57.1186 88.4638 58.7595 86.0522 58.081C84.7483 57.5605 80.78 56.9609 79.2093 56.7085C74.7083 55.9514 70.8522 56.33 68.2025 57.4657C65.6389 58.57 64.5748 60.1315 64.2931 61.8825C64.0207 63.5706 64.2268 64.533 64.4735 65.1325C64.739 65.7635 65.256 66.4739 66.2869 67.2464C68.5671 68.9345 72.0442 70.0702 76.5597 71.4427L76.9518 71.5693C80.9346 72.7836 85.8142 74.2822 89.4315 76.9795C91.4087 78.4628 93.2736 80.4657 94.4233 83.2425C95.587 86.0506 95.8399 89.2059 95.3067 92.4236C94.3255 98.5604 90.5397 102.567 86.0945 104.649C84.1872 105.533 82.0843 106.101 79.8687 106.385V111.654C79.8687 114.446 77.8636 116.702 75.3816 116.702C72.8996 116.702 70.8941 114.446 70.8941 111.654V106.148C70.8382 106.148 70.7683 105.991 70.712 106.116H70.684C67.2768 105.517 61.6496 103.861 57.8542 101.968C55.5892 100.832 54.5701 97.8504 55.5766 95.2951C56.5835 92.755 59.2353 91.6036 61.3732 92.7393C64.4302 94.2065 69.254 95.6418 72.0442 96.1313C76.5313 96.888 80.2189 96.4465 82.7148 95.3108C85.085 94.2222 86.1644 92.6446 86.4727 90.7516C86.7395 89.064 86.5434 88.1016 86.2906 87.502C86.0242 86.8711 85.5055 86.1606 84.482 85.3882C82.1961 83.7001 78.719 82.5643 74.2035 81.1915L73.8109 81.0653C69.8286 79.8509 64.9464 78.3519 61.326 75.6551C59.3471 74.1718 57.4935 72.1684 56.3425 69.3917C55.1744 66.584 54.9207 63.4287 55.4631 60.0686C56.456 53.9323 60.3851 50.0185 64.9996 48.037C66.8253 47.2527 68.8051 46.737 70.8941 46.4593V40.9807C70.8941 38.1932 72.8996 35.9326 75.3816 35.9326Z" fill="#FF3C90" stroke="#FF3B90" stroke-width="1.0735"/>
</g>
</svg>
