<svg width="218" height="218" viewBox="0 0 218 218" fill="none" xmlns="http://www.w3.org/2000/svg">
<path fill-rule="evenodd" clip-rule="evenodd" d="M72.5996 121.094C79.0174 121.094 85.1728 123.644 89.7113 128.182C94.2498 132.721 96.7991 138.876 96.7991 145.294V193.694C96.7991 200.112 94.2498 206.267 89.7113 210.806C85.1728 215.344 79.0174 217.894 72.5996 217.894H24.1998C17.7816 217.894 11.6263 215.344 7.08801 210.806C2.5496 206.267 0 200.112 0 193.694V145.294C0 138.876 2.5496 132.721 7.08801 128.182C11.6263 123.644 17.7816 121.094 24.1998 121.094H72.5996ZM193.599 121.094C200.017 121.094 206.173 123.644 210.711 128.182C215.25 132.721 217.799 138.876 217.799 145.294V193.694C217.799 200.112 215.25 206.267 210.711 210.806C206.173 215.344 200.017 217.894 193.599 217.894H145.199C138.781 217.894 132.626 215.344 128.087 210.806C123.549 206.267 121 200.112 121 193.694V145.294C121 138.876 123.549 132.721 128.087 128.182C132.626 123.644 138.781 121.094 145.199 121.094H193.599ZM72.5996 0.0947266C79.0174 0.0947266 85.1728 2.64432 89.7113 7.18273C94.2498 11.721 96.7991 17.8763 96.7991 24.2946V72.6943C96.7991 79.1121 94.2498 85.2676 89.7113 89.8061C85.1728 94.3446 79.0174 96.8939 72.5996 96.8939H24.1998C17.7816 96.8939 11.6263 94.3446 7.08801 89.8061C2.5496 85.2676 0 79.1121 0 72.6943V24.2946C0 17.8763 2.5496 11.721 7.08801 7.18273C11.6263 2.64432 17.7816 0.0947266 24.1998 0.0947266H72.5996ZM193.599 0.0947266C200.017 0.0947266 206.173 2.64432 210.711 7.18273C215.25 11.721 217.799 17.8763 217.799 24.2946V72.6943C217.799 79.1121 215.25 85.2676 210.711 89.8061C206.173 94.3446 200.017 96.8939 193.599 96.8939H145.199C138.781 96.8939 132.626 94.3446 128.087 89.8061C123.549 85.2676 121 79.1121 121 72.6943V24.2946C121 17.8763 123.549 11.721 128.087 7.18273C132.626 2.64432 138.781 0.0947266 145.199 0.0947266H193.599Z" fill="#CE5C5C"/>
</svg>
