<svg width="161" height="220" viewBox="0 0 161 220" fill="none" xmlns="http://www.w3.org/2000/svg">
<path d="M133.824 14.1274C133.824 6.58225 127.837 0.424561 120.502 0.424561C113.167 0.424561 107.179 6.58225 107.179 14.1274V55.2358H133.824V14.1274ZM153.807 68.5537H7.26185C3.56734 68.5537 0.60083 71.6049 0.60083 75.406V89.1087C0.60083 92.9088 3.56734 95.96 7.26185 95.96H13.9229V110.049C13.9229 142.593 36.1968 170.684 67.212 177.193V219.672H93.857V177.17C124.872 170.684 147.146 142.593 147.146 110.049V95.96H153.807C157.502 95.96 160.468 92.9088 160.468 89.1087V75.406C160.468 71.9804 157.513 68.5537 153.807 68.5537ZM53.89 14.1274C53.89 6.58225 47.9035 0.424561 40.5679 0.424561C33.2323 0.424561 27.2459 6.58225 27.2459 14.1274V55.2358H53.89V14.1274Z" fill="#1D88FA"/>
</svg>
