<svg width="176" height="181" viewBox="0 0 176 181" fill="none" xmlns="http://www.w3.org/2000/svg">
<path fill-rule="evenodd" clip-rule="evenodd" d="M88.0395 0C160.475 0 176 13.3789 176 80.2745C176 123.757 168.671 150.515 135.687 150.515C118.059 150.515 112.816 159.112 107.933 167.117C103.679 174.093 99.6983 180.618 88.0412 180.618C76.3849 180.618 72.4048 174.093 68.1501 167.117C63.2672 159.112 58.0239 150.515 40.3958 150.515C7.41103 150.515 0.0789795 122.9 0.0789795 80.2745C0.0789795 14.1684 15.6038 0 88.0395 0ZM95.3698 60.2057C95.3698 56.0497 98.6514 52.6805 102.699 52.6805H124.689C128.738 52.6805 132.02 56.0497 132.02 60.2057C132.02 64.3625 128.738 67.7317 124.689 67.7317H102.699C98.6514 67.7317 95.3698 64.3625 95.3698 60.2057ZM51.3896 82.7829C47.3408 82.7829 44.0592 86.1521 44.0592 90.309C44.0592 94.4658 47.3408 97.835 51.3896 97.835H124.689C128.738 97.835 132.02 94.4658 132.02 90.309C132.02 86.1521 128.738 82.7829 124.689 82.7829H51.3896Z" fill="#A21FDF"/>
</svg>
