<svg width="221" height="160" viewBox="0 0 221 160" fill="none" xmlns="http://www.w3.org/2000/svg">
<path d="M110.499 119.976C103.421 119.976 96.3435 117.719 90.3043 113.145L0.876404 45.5373V139.959C0.876404 150.991 10.0787 159.943 21.4308 159.943H199.569C210.92 159.943 220.124 150.995 220.124 139.959V45.5373L130.711 113.19C124.674 117.729 117.565 119.976 110.499 119.976ZM7.85198 33.9224L98.7196 102.657C105.653 107.902 115.365 107.902 122.297 102.657L213.165 33.9224C217.169 30.5919 220.124 25.4706 220.124 20.0589C220.124 9.02173 210.916 0.0754395 199.569 0.0754395H21.4308C10.0787 0.0754395 0.876404 9.02173 0.876404 20.0589C0.876404 25.4706 3.44996 30.5919 7.85198 33.9224Z" fill="#6F4CFC"/>
</svg>
