<svg width="161" height="214" viewBox="0 0 161 214" fill="none" xmlns="http://www.w3.org/2000/svg">
<path d="M107.377 0.668457V53.9582H160.666L107.377 0.668457ZM94.0549 53.9582V0.668457H20.7817C9.7456 0.668457 0.798706 9.61524 0.798706 20.6519V193.841C0.798706 204.874 9.7456 213.826 20.7817 213.826H140.683C151.719 213.826 160.666 204.878 160.666 193.841V67.2802H107.751C100.008 67.2802 94.0549 61.327 94.0549 53.9582ZM114.038 173.858H47.4268C43.7625 173.858 40.7658 170.861 40.7658 167.197C40.7658 163.533 43.7625 160.536 47.4268 160.536H114.038C117.716 160.536 120.699 163.518 120.699 167.197C120.699 170.861 117.701 173.858 114.038 173.858ZM114.038 147.213H47.4268C43.7625 147.213 40.7658 144.217 40.7658 140.552C40.7658 136.889 43.7625 133.891 47.4268 133.891H114.038C117.716 133.891 120.699 136.873 120.699 140.552C120.699 144.217 117.701 147.213 114.038 147.213ZM120.699 113.908C120.699 117.572 117.701 120.569 114.038 120.569H47.4268C43.7625 120.569 40.7658 117.572 40.7658 113.908C40.7658 110.244 43.7625 107.247 47.4268 107.247H114.038C117.701 107.247 120.699 110.244 120.699 113.908Z" fill="#E39806"/>
</svg>
