<svg width="175" height="180" viewBox="0 0 175 180" fill="none" xmlns="http://www.w3.org/2000/svg">
<path d="M111.56 65.2862C131.773 86.1233 131.501 119.538 111.696 140.062C111.663 140.096 111.629 140.166 111.56 140.2L88.8105 163.616C68.7346 184.278 36.099 184.278 16.0221 163.616C-4.05343 142.953 -4.05343 109.365 16.0221 88.7017L28.5829 75.7747C31.9007 72.3604 37.6558 74.6248 37.8258 79.4676C38.0281 85.6354 39.1109 91.8373 41.1084 97.83C41.7867 99.8521 41.3117 102.117 39.8223 103.616L35.3875 108.18C25.9081 117.935 25.6032 133.859 34.981 143.719C44.4614 153.685 60.0673 153.72 69.6151 143.893L92.3658 120.479C101.913 110.653 101.878 94.7637 92.3658 85.0087C91.1129 83.719 89.8601 82.7079 88.8779 82.0118C88.184 81.5175 87.6095 80.863 87.2039 80.1008C86.7984 79.3385 86.5723 78.4897 86.5423 77.6217C86.4064 73.9276 87.6603 70.13 90.5031 67.2378L97.6469 59.885C99.5085 57.9685 102.454 57.7251 104.621 59.2935C107.1 61.0775 109.423 63.0836 111.56 65.2862ZM159.262 16.1566C139.186 -4.50566 106.551 -4.50566 86.4738 16.1566L63.7242 39.572C63.69 39.6062 63.6226 39.6766 63.5883 39.7108C43.7489 60.2341 43.4782 93.6491 63.7242 114.486C65.8628 116.689 68.1849 118.695 70.6647 120.479C72.8313 122.047 75.7768 121.804 77.6384 119.887L84.7822 112.535C87.625 109.608 88.8779 105.845 88.742 102.151C88.7119 101.283 88.4858 100.434 88.0803 99.6717C87.6748 98.9094 87.1013 98.2549 86.4064 97.7606C85.4242 97.0645 84.1724 96.0534 82.9195 94.7637C73.4059 84.9724 73.3727 69.119 82.9195 59.2935L105.67 35.879C115.217 26.0525 130.824 26.0877 140.303 36.0531C149.715 45.9138 149.41 61.8014 139.897 71.5927L135.462 76.1569C133.974 77.6911 133.499 79.9203 134.177 81.9424C136.173 87.9351 137.223 94.137 137.459 100.305C137.63 105.148 143.385 107.412 146.702 103.998L159.262 91.0708C179.338 70.4076 179.338 36.8196 159.262 16.1566Z" fill="#05A6C6"/>
</svg>
