<svg width="108" height="199" viewBox="0 0 108 199" fill="none" xmlns="http://www.w3.org/2000/svg">
<path d="M53.6904 6.24536C59.5855 6.24536 64.348 11.4656 64.348 17.9023V30.9005C64.8801 30.9761 65.38 31.0598 65.9131 31.1445C69.4435 31.7193 79.9673 33.5736 84.2974 34.7725C89.6936 36.3535 93.4563 42.71 91.9909 48.9395C90.5576 55.1679 84.7631 58.9572 79.0349 57.3903C75.9381 56.1883 66.5126 54.8039 62.782 54.2211C52.0912 52.4727 42.9322 53.3469 36.6389 55.9695C30.5498 58.5196 28.0223 62.1254 27.3534 66.1688C26.7062 70.067 27.1957 72.2893 27.7817 73.6737C28.4123 75.1308 29.6403 76.7713 32.0889 78.5551C37.5049 82.4533 45.7636 85.0759 56.4886 88.2451L57.42 88.5375C66.8797 91.3417 78.4697 94.8022 87.0614 101.031C91.7575 104.456 96.1871 109.081 98.9179 115.493C101.682 121.978 102.282 129.264 101.016 136.694C98.6856 150.865 89.6936 160.118 79.1356 164.925C74.6053 166.967 69.6105 168.278 64.348 168.933V181.1C64.348 187.548 59.5855 192.757 53.6904 192.757C47.7953 192.757 43.0318 187.548 43.0318 181.1V168.387C42.899 168.387 42.7331 168.023 42.5993 168.313H42.5329C34.4401 166.93 21.0745 163.104 12.0598 158.733C6.68012 156.111 4.25945 149.226 6.65005 143.325C9.04169 137.46 15.3402 134.801 20.418 137.423C27.679 140.811 39.1363 144.126 45.7636 145.256C56.4212 147.003 65.1798 145.984 71.1081 143.361C76.7377 140.848 79.3015 137.204 80.0337 132.833C80.6674 128.936 80.2017 126.714 79.6012 125.329C78.9686 123.872 77.7365 122.232 75.3054 120.448C69.876 116.55 61.6173 113.927 50.8922 110.757L49.9599 110.466C40.5012 107.661 28.9049 104.2 20.306 97.9724C15.6057 94.5471 11.2031 89.9209 8.46918 83.509C5.69484 77.0254 5.09227 69.7393 6.38039 61.9802C8.73884 47.8101 18.071 38.7725 29.0315 34.1967C33.3677 32.3858 38.0701 31.1949 43.0318 30.5536V17.9023C43.0318 11.4656 47.7953 6.24536 53.6904 6.24536Z" fill="#FF3C90" stroke="#FF3B90" stroke-width="10.8244"/>
</svg>
